test
version=1
nRows=29
nColumns=25
inDegrees=yes
endheader
time	pelvis_tilt	pelvis_list	pelvis_rotation	pelvis_tx	pelvis_ty	pelvis_tz	hip_flexion_r	hip_adduction_r	hip_rotation_r	knee_flexion_r	knee_adduction_r	knee_rotation_r	ankle_angle_r	subtalar_angle_r	mtp_angle_r	hip_flexion_l	hip_adduction_l	hip_rotation_l	knee_flexion_l	knee_adduction_l	knee_rotation_l	ankle_angle_l	subtalar_angle_l	mtp_angle_l
3.950000	0.000000	0.000000	0.000000	0.000000	0.000000	0.000000	44.305077	-0.849878	13.089381	22.881691	5.874045	-4.065570	-0.753028	6.133307	0.000000	6.797935	5.444910	-0.424035	3.142998	-1.609144	5.592240	7.152184	15.835349	0.000000
3.958333	0.000000	0.000000	0.000000	0.000000	0.000000	0.000000	44.258236	-0.537699	12.929362	20.260277	4.555308	-4.316769	-1.224625	6.292569	0.000000	6.346221	5.302497	-0.714524	3.457626	-1.572693	5.894612	7.516582	15.826020	0.000000
3.966667	0.000000	0.000000	0.000000	0.000000	0.000000	0.000000	44.199970	-0.195765	12.621467	17.877918	3.219411	-4.307602	-1.622815	6.431323	0.000000	5.911824	5.116266	-1.105534	3.836545	-1.538983	6.268724	7.855443	15.862864	0.000000
3.975000	0.000000	0.000000	0.000000	0.000000	0.000000	0.000000	44.134224	0.165606	12.182859	15.745675	1.927696	-4.062734	-1.926484	6.530669	0.000000	5.492235	4.887338	-1.583246	4.280374	-1.508765	6.719566	8.166731	15.947072	0.000000
3.983333	0.000000	0.000000	0.000000	0.000000	0.000000	0.000000	44.065117	0.531254	11.640456	13.873540	0.738940	-3.619612	-2.120355	6.575292	0.000000	5.084611	4.622704	-2.127717	4.786018	-1.482921	7.244601	8.446780	16.074564	0.000000
3.991667	0.000000	0.000000	0.000000	0.000000	0.000000	0.000000	43.997269	0.883126	11.028486	12.272847	-0.297322	-3.025574	-2.197386	6.558576	0.000000	4.687048	4.334231	-2.713381	5.347747	-1.462187	7.832282	8.689048	16.237345	0.000000
4.000000	0.000000	0.000000	0.000000	0.000000	0.000000	0.000000	43.935310	1.202982	10.384463	10.956460	-1.146622	-2.333974	-2.160262	6.487649	0.000000	4.299540	4.036837	-3.311522	5.959453	-1.447254	8.463444	8.884722	16.425129	0.000000
4.008333	0.000000	0.000000	0.000000	0.000000	0.000000	0.000000	43.883041	1.475592	9.744231	9.936639	-1.793180	-1.596822	-2.022422	6.383135	0.000000	3.924443	3.745874	-3.892873	6.616924	-1.439144	9.114155	9.024404	16.626354	0.000000
4.016667	0.000000	0.000000	0.000000	0.000000	0.000000	0.000000	43.842434	1.691163	9.137586	9.220840	-2.240334	-0.858841	-1.809639	6.276145	0.000000	3.566282	3.474416	-4.430433	7.319499	-1.439342	9.759396	9.100124	16.829487	0.000000
4.025000	0.000000	0.000000	0.000000	0.000000	0.000000	0.000000	43.812447	1.846388	8.585874	8.806986	-2.507390	-0.152554	-1.561280	6.201305	0.000000	3.230468	3.231216	-4.901263	8.070132	-1.449237	10.375060	9.106571	17.024687	0.000000
4.033333	0.000000	0.000000	0.000000	0.000000	0.000000	0.000000	43.787922	1.944567	8.101429	8.679702	-2.624231	0.503333	-1.330558	6.188582	0.000000	2.922013	3.018982	-5.288183	8.875119	-1.469079	10.939528	9.041727	17.205244	0.000000
4.041667	0.000000	0.000000	0.000000	0.000000	0.000000	0.000000	43.759224	1.995017	7.688383	8.808933	-2.625390	1.103601	-1.182082	6.254863	0.000000	2.644616	2.833693	-5.580534	9.743285	-1.497131	11.433326	8.905649	17.368999	0.000000
4.050000	0.000000	0.000000	0.000000	0.000000	0.000000	0.000000	43.713257	2.011638	7.344071	9.151713	-2.544824	1.653821	-1.185546	6.398876	0.000000	2.400903	2.664742	-5.775077	10.685286	-1.528903	11.837871	8.697503	17.521154	0.000000
4.058333	0.000000	0.000000	0.000000	0.000000	0.000000	0.000000	43.635765	2.010761	7.061092	9.657090	-2.411712	2.165971	-1.404632	6.601429	0.000000	2.192797	2.496224	-5.874966	11.712234	-1.556048	12.133546	8.412012	17.676399	0.000000
4.066667	0.000000	0.000000	0.000000	0.000000	0.000000	0.000000	43.514225	2.009510	6.828684	10.273340	-2.248438	2.652068	-1.881917	6.831836	0.000000	2.022667	2.308164	-5.889242	12.835174	-1.565867	12.299546	8.037276	17.860407	0.000000
4.075000	0.000000	0.000000	0.000000	0.000000	0.000000	0.000000	43.340271	2.024903	6.634057	10.955800	-2.070654	3.119479	-2.623650	7.056759	0.000000	1.894193	2.078454	-5.831732	14.064372	-1.542100	12.314062	7.553902	18.109619	0.000000
4.083333	0.000000	0.000000	0.000000	0.000000	0.000000	0.000000	43.111469	2.073544	6.463476	11.673213	-1.888898	3.568950	-3.590530	7.247977	0.000000	1.813610	1.784034	-5.719786	15.409426	-1.466642	12.157580	6.935119	18.468540	0.000000
4.091667	0.000000	0.000000	0.000000	0.000000	0.000000	0.000000	42.831078	2.171116	6.304776	12.410635	-1.710355	3.996550	-4.698543	7.386629	0.000000	1.789013	1.403376	-5.572484	16.878361	-1.322032	11.818275	6.146945	18.982939	0.000000
4.100000	0.000000	0.000000	0.000000	0.000000	0.000000	0.000000	42.505863	2.331964	6.149866	13.168132	-1.540614	4.397634	-5.831050	7.462982	0.000000	1.829053	0.918519	-5.409227	18.477201	-1.094471	11.299832	5.149251	19.690088	0.000000
4.108333	0.000000	0.000000	0.000000	0.000000	0.000000	0.000000	42.142376	2.568393	5.997420	13.955251	-1.384945	4.771533	-6.859624	7.471689	0.000000	1.940752	0.317678	-5.247638	20.209053	-0.777122	10.626925	3.897191	20.608385	0.000000
4.116667	0.000000	0.000000	0.000000	0.000000	0.000000	0.000000	41.743114	2.889563	5.854613	14.782509	-1.248839	5.124855	-7.668730	7.404473	0.000000	2.128356	-0.402924	-5.103012	22.073990	-0.373335	9.847666	2.343545	21.730852	0.000000
4.125000	0.000000	0.000000	0.000000	0.000000	0.000000	0.000000	41.303848	3.299624	5.738304	15.652265	-1.136745	5.471167	-8.177688	7.245522	0.000000	2.392507	-1.237173	-4.987382	24.068541	0.102135	9.031385	0.444165	23.021139	0.000000
4.133333	0.000000	0.000000	0.000000	0.000000	0.000000	0.000000	40.813328	3.796211	5.673656	16.551680	-1.049982	5.824462	-8.354146	6.974072	0.000000	2.731153	-2.169289	-4.909350	26.186253	0.624260	8.263595	-1.831366	24.412706	0.000000
4.141667	0.000000	0.000000	0.000000	0.000000	0.000000	0.000000	40.255325	4.369620	5.690453	17.450037	-0.985069	6.189127	-8.216270	6.574264	0.000000	3.141240	-3.174847	-4.873930	28.417784	1.161098	7.635572	-4.484818	25.813032	0.000000
4.150000	0.000000	0.000000	0.000000	0.000000	0.000000	0.000000	39.613060	5.003046	5.816389	18.301338	-0.933790	6.551105	-7.824882	6.048128	0.000000	3.622061	-4.223987	-4.882874	30.752060	1.678563	7.232285	-7.472424	27.114193	0.000000
4.158333	0.000000	0.000000	0.000000	0.000000	0.000000	0.000000	38.874447	5.673612	6.069821	19.051500	-0.885062	6.875312	-7.267792	5.426063	0.000000	4.177546	-5.284490	-4.934274	33.176800	2.146131	7.120883	-10.691633	28.206810	0.000000
4.166667	0.000000	0.000000	0.000000	0.000000	0.000000	0.000000	38.036415	6.354467	6.453275	19.647905	-0.828480	7.110180	-6.640005	4.769854	0.000000	4.817399	-6.325126	-5.022754	35.679482	2.541509	7.344191	-13.977915	28.994825	0.000000
4.175000	0.000000	0.000000	0.000000	0.000000	0.000000	0.000000	37.107430	7.017427	6.950013	20.049221	-0.757999	7.199624	-6.024682	4.164071	0.000000	5.556528	-7.318147	-5.138504	38.247593	2.853905	7.917129	-17.118408	29.407879	0.000000
4.183333	0.000000	0.000000	0.000000	0.000000	0.000000	0.000000	36.106945	7.635754	7.524505	20.233095	-0.674448	7.100588	-5.480091	3.696079	0.000000	6.412782	-8.240811	-5.267445	40.868126	3.083869	8.825590	-19.884832	29.409962	0.000000
